<?xml version="1.0" encoding="iso-8859-1"?><!DOCTYPE svg PUBLIC "-//W3C//DTD SVG 1.1//EN" "http://www.w3.org/Graphics/SVG/1.1/DTD/svg11.dtd"><svg xmlns="http://www.w3.org/2000/svg" xmlns:xlink="http://www.w3.org/1999/xlink"><symbol viewBox="0 0 480.097 480.097" xml:space="preserve" id="adaptive" xmlns="http://www.w3.org/2000/svg"><path style="fill:#020202" d="M206.759 332.99H39.225c-3.894 0-7.065-3.173-7.065-7.067V53.353c0-3.893 3.172-7.065 7.065-7.065h401.631c3.895 0 7.065 3.172 7.065 7.065v59.696c11.763 1.389 22.785 5.244 32.159 11.581V53.353c0-21.63-17.602-39.225-39.225-39.225H39.225C17.602 14.128 0 31.722 0 53.353v272.569c0 21.631 17.602 39.227 39.225 39.227h134.62v52.581h-21.229c-13.316 0-24.12 10.796-24.12 24.12 0 13.324 10.804 24.12 24.12 24.12h67.71c-8.463-11.902-13.566-26.35-13.566-42.037V332.99z"/><path style="fill:#020202" d="M341.739 441.645v-34.742h-70.662V184.999c0-4.681 3.8-8.489 8.479-8.489h159.887c4.679 0 8.478 3.808 8.478 8.489v68.676h12.046c7.364 0 14.179 2.127 20.113 5.597v-74.273c0-22.417-18.23-40.648-40.638-40.648H279.556c-22.407 0-40.638 18.231-40.638 40.648v238.933c0 22.417 18.23 40.647 40.638 40.647h69.438c-4.428-6.359-7.255-15.22-7.255-22.934z"/><path style="fill:#020202" d="M459.967 273.775h-77.996c-11.104 0-20.132 9.037-20.132 20.138v147.732c0 11.101 9.028 20.131 20.132 20.131h77.996c11.102 0 20.13-9.03 20.13-20.131V293.912c0-11.101-9.029-20.137-20.13-20.137zm-74.009 24.119h70.019v127.703h-70.019V297.894zm35.019 154.099c-2.215 0-4.193-.896-5.7-2.277-1.713-1.555-2.812-3.739-2.812-6.228 0-4.694 3.801-8.495 8.512-8.495 4.679 0 8.479 3.801 8.479 8.495 0 2.489-1.1 4.672-2.795 6.228-1.509 1.382-3.487 2.277-5.684 2.277z"/></symbol><symbol xml:space="preserve" viewBox="0 0 122.315 122.88" id="animate" xmlns="http://www.w3.org/2000/svg"><path fill-rule="evenodd" clip-rule="evenodd" d="M94.754 14.534c8.844 0 16.014 7.17 16.014 16.012 0 8.844-7.17 16.015-16.014 16.015-8.843 0-16.013-7.17-16.013-16.015 0-8.842 7.17-16.012 16.013-16.012zm14.511 37.587c-7.205 0-13.049 5.844-13.049 13.048 0 7.207 5.844 13.049 13.049 13.051 7.207 0 13.051-5.844 13.051-13.051-.001-7.204-5.844-13.048-13.051-13.048zm-15.13 37.782c-5.032 0-9.114 4.082-9.114 9.113 0 5.032 4.082 9.114 9.114 9.114 5.031 0 9.113-4.082 9.113-9.114 0-5.031-4.082-9.113-9.113-9.113zm-34.86 14.747c-5.032 0-9.114 4.081-9.114 9.113 0 5.034 4.082 9.116 9.114 9.116s9.113-4.082 9.113-9.116c.001-5.032-4.08-9.113-9.113-9.113zM23.652 90.86a8.54 8.54 0 0 0 0 17.08 8.54 8.54 0 0 0 0-17.08zM9.096 54.872a9.095 9.095 0 1 0-.001 18.19 9.095 9.095 0 0 0 .001-18.19zm14.556-37.846c-6.354 0-11.508 5.155-11.508 11.509s5.154 11.506 11.508 11.506 11.506-5.152 11.506-11.506-5.152-11.509-11.506-11.509zM59.341 0C51.69 0 45.483 6.205 45.483 13.855c0 7.651 6.207 13.856 13.858 13.856s13.856-6.205 13.856-13.856C73.197 6.205 66.992 0 59.341 0z"/></symbol><symbol xml:space="preserve" viewBox="0 0 122.883 122.882" id="arrow-down" xmlns="http://www.w3.org/2000/svg"><path d="M0 61.441c0-16.966 6.877-32.327 17.996-43.445C29.115 6.877 44.475 0 61.441 0c16.967 0 32.327 6.877 43.446 17.996s17.996 26.479 17.996 43.445-6.877 32.326-17.996 43.445c-11.119 11.118-26.479 17.995-43.446 17.995-16.966 0-32.326-6.877-43.445-17.995C6.877 93.768 0 78.407 0 61.441zm42.166-9.936a4.507 4.507 0 0 0-6.285 6.46l22.521 21.839 3.142-3.23-3.146 3.244a4.52 4.52 0 0 0 6.391-.099c.049-.052.098-.104.145-.158l22.084-21.596a4.507 4.507 0 0 0-6.285-6.46L61.531 70.284 42.166 51.505zm-17.78-27.119C14.903 33.869 9.038 46.97 9.038 61.441s5.865 27.572 15.349 37.055c9.482 9.483 22.583 15.349 37.055 15.349s27.573-5.865 37.055-15.349c9.484-9.482 15.35-22.584 15.35-37.055 0-14.472-5.865-27.573-15.35-37.056-9.483-9.482-22.585-15.347-37.056-15.347s-27.572 5.865-37.055 15.348z"/></symbol><symbol shape-rendering="geometricPrecision" text-rendering="geometricPrecision" image-rendering="optimizeQuality" fill-rule="evenodd" clip-rule="evenodd" viewBox="0 0 512 243.58" id="arrow-right" xmlns="http://www.w3.org/2000/svg"><path fill-rule="nonzero" d="M373.57 0 512 120.75 371.53 243.58l-20.92-23.91 94.93-83L0 137.09v-31.75l445.55-.41-92.89-81.02z"/></symbol><symbol xml:space="preserve" viewBox="0 0 122.883 122.882" id="arrow-up" xmlns="http://www.w3.org/2000/svg"><path d="M122.883 61.441c0 16.966-6.877 32.326-17.996 43.445-11.119 11.118-26.479 17.995-43.446 17.995-16.966 0-32.326-6.877-43.445-17.995C6.877 93.768 0 78.407 0 61.441c0-16.967 6.877-32.327 17.996-43.445C29.115 6.877 44.475 0 61.441 0c16.967 0 32.327 6.877 43.446 17.996s17.996 26.479 17.996 43.445zm-42.166 9.936A4.506 4.506 0 1 0 87 64.917L64.48 43.078l-3.142 3.23 3.146-3.244a4.52 4.52 0 0 0-6.536.256L35.866 64.917a4.506 4.506 0 0 0 6.284 6.46l19.202-18.779 19.365 18.779zm17.779 27.119c9.484-9.482 15.35-22.584 15.35-37.055 0-14.472-5.865-27.573-15.35-37.056-9.482-9.482-22.584-15.347-37.055-15.347s-27.572 5.865-37.055 15.348S9.038 46.97 9.038 61.441s5.865 27.572 15.349 37.055c9.482 9.483 22.584 15.349 37.055 15.349 14.47 0 27.572-5.866 37.054-15.349z"/></symbol><symbol viewBox="0 0 122.88 119.39" id="chat" xmlns="http://www.w3.org/2000/svg"><path d="M15.33 0h72.51a15.36 15.36 0 0 1 15.33 15.33v44.05a15.36 15.36 0 0 1-15.33 15.33h-46l-23.28 20a2.58 2.58 0 0 1-3.64-.29 2.54 2.54 0 0 1-.61-1.84l1.22-17.88h-.2A15.36 15.36 0 0 1 0 59.38V15.33A15.36 15.36 0 0 1 15.33 0Zm95.36 32.33a15.09 15.09 0 0 1 12.19 14.75v36.66a15.07 15.07 0 0 1-15 15h-.54l1.25 18.26a2.27 2.27 0 0 1-3.73 1.87l-23.37-20.7H31.2l15.16-15.42H98A12.78 12.78 0 0 0 110.73 70V32.34ZM30.42 47.58a2.59 2.59 0 1 1 0-5.17h34a2.59 2.59 0 1 1 0 5.17Zm0-17.73a2.59 2.59 0 1 1 0-5.17h45.29a2.59 2.59 0 1 1 0 5.17ZM87.83 5.17h-72.5A10.17 10.17 0 0 0 5.17 15.33v44.05a10.19 10.19 0 0 0 10.16 10.16h3.15a2.58 2.58 0 0 1 2.39 2.74l-1 14.49 19.19-16.5a2.6 2.6 0 0 1 1.82-.75h46.95A10.21 10.21 0 0 0 98 59.38V15.33A10.19 10.19 0 0 0 87.83 5.17Z"/></symbol><symbol viewBox="0 0 30 30" id="code" xmlns="http://www.w3.org/2000/svg"><g style="font-style:normal;font-weight:400;font-size:24.25199318px;line-height:1.25;font-family:sans-serif;letter-spacing:0;word-spacing:0;fill:#000;fill-opacity:1;stroke:none;stroke-width:1"><path style="font-style:normal;font-variant:normal;font-weight:700;font-stretch:normal;font-family:'Fira Code';-inkscape-font-specification:'Fira Code Bold';stroke-width:1.64934897" d="M11.78 3.117c-4.463 0-6.161 1.188-5.798 4.487l.366 3.466C6.542 12.89 5.06 13.447 3 13.447v3.106c2.086 0 3.542.558 3.348 2.377l-.366 3.492c-.34 3.25 1.335 4.46 5.797 4.46v-2.667c-1.48 0-2.377-.315-2.256-1.527l.364-3.59c.29-2.74-1.163-3.71-3.758-4.098 2.45-.364 4.049-1.381 3.758-4.098l-.364-3.59c-.12-1.212.753-1.527 2.256-1.527V3.117zm6.44 0v2.668c1.48 0 2.378.315 2.257 1.527l-.364 3.59c-.29 2.74 1.189 3.71 3.783 4.098-2.473.364-4.074 1.381-3.783 4.098l.364 3.59c.12 1.212-.753 1.527-2.256 1.527v2.668c4.462 0 6.16-1.188 5.797-4.487l-.366-3.466c-.194-1.82 1.31-2.377 3.348-2.377v-3.106c-2.061 0-3.542-.558-3.348-2.377l.366-3.492c.34-3.25-1.335-4.46-5.797-4.46z" aria-label="{}"/></g></symbol><symbol xml:space="preserve" viewBox="0 0 122.88 119.012" id="crossbrowser" xmlns="http://www.w3.org/2000/svg"><path d="M88.173 13.938H5.764v65.493c0 .303.126.58.329.783s.48.328.783.328h10.829v5.764H6.876a6.845 6.845 0 0 1-4.858-2.018A6.847 6.847 0 0 1 0 79.432V6.876c0-1.894.773-3.614 2.018-4.859A6.857 6.857 0 0 1 6.876 0H87.05c1.894 0 3.612.775 4.856 2.019a6.861 6.861 0 0 1 2.02 4.857h-.011l-.002 18.572h-5.74v-11.51zM34.461 119.012a6.754 6.754 0 0 1-4.79-1.988 6.755 6.755 0 0 1-1.989-4.791V39.878c0-1.868.762-3.563 1.989-4.79a6.755 6.755 0 0 1 4.79-1.989h81.64a6.76 6.76 0 0 1 4.789 1.99 6.758 6.758 0 0 1 1.99 4.789v72.354a6.765 6.765 0 0 1-1.99 4.791 6.758 6.758 0 0 1-4.789 1.988h-81.64v.001zm82.655-64.203h-83.67v57.423c0 .277.115.531.3.717.185.184.438.299.715.299h81.64c.275 0 .527-.115.714-.301s.302-.439.302-.715V54.809h-.001z"/></symbol><symbol viewBox="0 0 1200 1200" xml:space="preserve" id="git" xmlns="http://www.w3.org/2000/svg"><path d="M1023.542 297.679h114.263v127.399c-4.376 0-12.476-.435-24.299-1.312-11.819-.873-22.981-1.314-33.491-1.314h-56.474v244.294c0 58.669 19.261 87.999 57.789 87.999 27.146 0 51.657-7.436 73.555-22.325v131.337c-32.398 17.519-71.365 26.271-116.899 26.271-63.919 0-108.132-22.764-132.651-68.293-18.386-34.153-27.585-87.995-27.585-161.556V425.078h1.315v-2.627l-19.702-1.309c-11.384 0-26.268 1.309-44.654 3.936V297.679h64.356v-51.223c0-24.519-1.315-44.22-3.939-59.105h152.354c-2.623 16.638-3.938 35.464-3.938 56.475v53.853zm-420.19 583.154c1.75-17.505 2.62-47.273 2.62-89.308V383.047c0-41.148-.87-69.609-2.62-85.368h148.416c-1.755 16.639-2.631 44.22-2.631 82.748v403.215c0 44.66.876 77.057 2.631 97.191H603.352zM273.631 291.138c-59.541 0-110.754 19.703-153.662 59.106-44.651 42.031-67.017 94.571-67.017 157.617 0 42.031 12.323 81.367 36.841 118.14 21.89 34.146 46.833 56.068 74.854 65.698v2.637c-28.021 12.247-42.041 42.884-42.041 91.919 0 37.655 14.838 65.695 44.604 84.082v2.637c-81.426 27.14-122.095 77.476-122.095 151.025 0 63.926 27.151 110.782 81.445 140.552 42.897 23.645 97.588 35.449 164.136 35.449 161.985 0 243.017-67.886 243.017-203.613 0-84.933-62.647-137.04-187.865-156.299-28.895-4.375-50.74-14.853-65.625-31.494-11.384-11.379-17.065-22.747-17.065-34.131 0-32.396 17.497-51.213 52.515-56.47 53.412-7.872 96.951-32.679 130.664-74.268 33.71-41.593 50.61-90.371 50.61-146.411 0-17.513-3.544-36.334-10.547-56.47 22.769-5.259 40.253-10.054 52.515-14.429V291.138c-55.17 21.016-103.725 31.494-145.752 31.494-36.78-21.014-76.628-31.494-119.532-31.494zm5.273 120.776c26.27 0 46.858 10.112 61.743 30.249 12.258 18.393 18.384 40.306 18.384 65.698 0 61.291-26.714 91.919-80.127 91.919-55.159 0-82.764-30.254-82.764-90.674.001-64.793 27.605-97.192 82.764-97.192zm9.156 534.595c73.556 0 110.376 22.358 110.376 67.017 0 47.287-33.725 70.898-101.147 70.898-77.051 0-115.576-22.81-115.576-68.335-.001-46.41 35.422-69.58 106.347-69.58zM769.191 97.848c0 54.04-40.869 97.848-91.282 97.848-50.414 0-91.282-43.808-91.282-97.848S627.495 0 677.909 0c50.413 0 91.282 43.808 91.282 97.848z"/></symbol><symbol viewBox="0 0 512 512" xml:space="preserve" id="google" xmlns="http://www.w3.org/2000/svg"><path style="display:inline" d="M336.199 24.703c4.217 2.62 8.959 6.438 14.223 11.453 5.053 5.24 10.018 11.677 14.857 19.312 4.641 7.199 8.746 15.719 12.326 25.538 2.943 9.818 4.43 21.271 4.43 34.37-.398 24.016-5.703 43.216-15.895 57.612-5.004 6.986-10.305 13.424-15.906 19.325-6.199 5.901-12.801 11.889-19.799 18.002-3.992 4.142-7.697 8.845-11.092 14.072-4.004 5.465-5.988 11.79-5.988 18.988 0 6.986 2.047 12.774 6.152 17.365 3.479 4.367 6.861 8.185 10.141 11.453l22.77 18.663c14.158 11.565 26.572 24.328 37.227 38.301 10.057 14.172 15.283 32.735 15.695 55.641 0 32.524-14.361 61.33-43.08 86.431-29.777 25.975-72.744 39.398-128.897 40.271-47.008-.437-82.114-10.454-105.294-30.066-23.404-18.289-35.106-40.196-35.106-65.671 0-12.426 3.805-26.249 11.428-41.494 7.385-15.271 20.747-28.669 40.109-40.196 21.732-12.426 44.575-20.71 68.491-24.839 23.691-3.48 43.377-5.439 59.021-5.876-4.84-6.362-9.144-13.174-12.936-20.41-4.43-7.023-6.626-15.47-6.626-25.351 0-5.913.849-10.866 2.52-14.821 1.485-4.166 2.844-7.996 4.106-11.502-7.624.873-14.81 1.298-21.572 1.298-35.717-.425-62.952-11.665-81.678-33.709-19.611-20.51-29.405-44.413-29.405-71.685 0-32.96 13.885-62.84 41.656-89.687 19.087-15.707 38.911-25.962 59.483-30.777C247.92 2.572 266.995.501 284.811.501h134.225l-41.443 24.203h-41.394zm25.926 386.344c0-17.042-5.553-31.875-16.668-44.538-11.752-12.002-30.129-26.735-55.143-44.201-4.266-.437-9.281-.661-15.059-.661-3.418-.424-12.176 0-26.286 1.322-13.885 1.959-28.107 5.115-42.629 9.481-3.418 1.322-8.221 3.294-14.434 5.901-6.2 2.832-12.488 6.874-18.9 12.113-6.201 5.465-11.428 12.227-15.707 20.311-4.915 8.509-7.373 18.764-7.373 30.777 0 23.566 10.679 43.003 32.05 58.273 20.311 15.295 48.081 23.143 83.35 23.579 31.612-.437 55.778-7.411 72.433-20.959 16.243-13.323 24.366-30.439 24.366-51.398zm-93.581-196.74c17.679-.648 32.399-6.986 44.163-19.038 5.689-8.508 9.346-17.267 10.953-26.224.986-8.982 1.473-16.518 1.473-22.643 0-26.46-6.762-53.133-20.311-80.043-6.338-12.899-14.695-23.392-25.051-31.488-10.579-7.647-22.742-11.702-36.491-12.139-18.189.437-33.31 7.76-45.374 21.982-10.155 14.871-15.033 31.488-14.597 49.853 0 24.277 7.111 49.541 21.321 75.777 6.874 12.251 15.744 22.643 26.623 31.164 10.88 8.532 23.318 12.799 37.291 12.799z"/></symbol><symbol viewBox="0 0 122.88 100.15" id="gulp" xmlns="http://www.w3.org/2000/svg"><path d="M22.7 37.17c-5.7 1.17-11.54 1.3-17.22-4.52C1.67 28.75-.23 22.93 0 16.84c14.55 16.9 32.27-4 10.79-14.85 10.4-4.92 20.21-.3 25.39 9.26 2.47 4.52 3.93 6.89 5.81 8.5a9.47 9.47 0 0 0 1.07.82 9.67 9.67 0 0 1 4.48-5.33 8.66 8.66 0 0 1 3.89-.92c3.79 0 8.52 2.26 9.32 6.13a2.32 2.32 0 0 1 .52-.07H64a2.14 2.14 0 0 1 .45.05 6.69 6.69 0 0 1 6 5.49 2 2 0 0 1 .85-.19h2.75a2.14 2.14 0 0 1 .45.05c4 .61 5.55 3 6.12 6.12a3 3 0 0 1 .31 0h2.77a2.12 2.12 0 0 1 .44.05c4.54.71 6.32 3.68 7 7.27 8.3-1.28 17.41-6.3 26.25 2.77 3.8 3.9 5.71 9.72 5.46 15.81-14.55-16.9-32.27 4-10.79 14.85-8.93 4.23-17.43 1.4-22.94-5.56a35.54 35.54 0 0 1-2.79 5.86c-.46.75-.92 1.51-1.53 2.56v.09a22.24 22.24 0 0 1-1.55 2.35h1.91a3 3 0 0 1 3 3v16.22a3 3 0 0 1-3 3H42a3 3 0 0 1-3-3V80.9a3 3 0 0 1 3-3h1a21 21 0 0 1-1.07-4.53L27 49v-.06a27.71 27.71 0 0 1-3-5.07 14.33 14.33 0 0 1-1.29-4.82 11.78 11.78 0 0 1 0-1.88Zm19.45 6.92a2.11 2.11 0 0 1-.31-.21c-1.27-1-2.65-2.14-3.86-3.12l-5.19-4.26a7.27 7.27 0 0 0-3.08-1.56A3.12 3.12 0 0 0 28 35a1.8 1.8 0 0 0-1 1 5.91 5.91 0 0 0-.35 2.81 10.65 10.65 0 0 0 1 3.47 22.16 22.16 0 0 0 2.53 4.28l.12.19 15.17 24.8a2.11 2.11 0 0 1 .34.91A13.15 13.15 0 0 0 47.43 78a2.49 2.49 0 0 0 2.22 1.26h23.87A7.17 7.17 0 0 0 77.59 78a13.15 13.15 0 0 0 3.72-4.36l.06-.11c.44-.74 1-1.69 1.57-2.61a37.79 37.79 0 0 0 4.78-15.52l-.16-6.81a2.81 2.81 0 0 1 0-.29v-1.6c.06-4.5.13-10.07-4-10.77h-2.65c0 1.27-.1 2.55-.17 3.81s-.14 2.19-.14 3.22a2 2 0 0 1-4 0c0-1 .08-2.23.16-3.47.27-4.23.58-9.1-2.82-9.71h-2.63a2 2 0 0 1-.43 0c0 1.53-.08 3.13-.18 4.65-.07 1.12-.13 2.2-.13 3.22a2 2 0 1 1-4 0c0-1 .08-2.22.16-3.46.26-4.24.57-9.1-2.82-9.71h-2.64a2.11 2.11 0 0 1-.52-.07v7.74a2 2 0 0 1-4 0v-9.88c0-2.76-2.75-4-5.32-4a4.61 4.61 0 0 0-2.07.5c-1.8.91-3.2 3.49-3.2 7.06v21.96a2 2 0 0 1-4 0v-3.7Zm0-7.12-1.88-.77a24.07 24.07 0 0 0-2.63-.89l2.87 2.34L42.15 39v-2Z"/></symbol><symbol viewBox="0 0 109.21 122.88" id="interact" xmlns="http://www.w3.org/2000/svg"><path d="M86 122.31a5.57 5.57 0 0 1-.9.35 5.09 5.09 0 0 1-1 .18 5.46 5.46 0 0 1-1 0 6.77 6.77 0 0 1-1-.15 6 6 0 0 1-1-.36 5.51 5.51 0 0 1-.92-.53 6.41 6.41 0 0 1-.78-.69 5.19 5.19 0 0 1-.65-.87l-9.08-14.88-7.69 9a15.49 15.49 0 0 1-1.1 1.18c-.39.37-.78.71-1.18 1l-.08.06a12.19 12.19 0 0 1-1.2.82 9.66 9.66 0 0 1-1.24.63 6.91 6.91 0 0 1-1 .37 6.21 6.21 0 0 1-1 .22 7.55 7.55 0 0 1-1.06.07 7.19 7.19 0 0 1-1-.11 6.14 6.14 0 0 1-1.18-.35 5.42 5.42 0 0 1-1.06-.57 6.22 6.22 0 0 1-.92-.78 7.31 7.31 0 0 1-.75-1l-.11-.2-.09-.21-1.29-3.49v-.17l-6.81-68.57a4.52 4.52 0 0 1 0-1.33 4.3 4.3 0 0 1 .43-1.25 4.31 4.31 0 0 1 1.39-1.55 3.82 3.82 0 0 1 .9-.46 4.25 4.25 0 0 1 1-.24 4.31 4.31 0 0 1 1.29.05 4.67 4.67 0 0 1 1.25.44l.3.16c13.51 8.84 26.1 17.06 38.64 25.25l19 12.39a11.72 11.72 0 0 1 1 .72 8.78 8.78 0 0 1 .82.73l.06.07a7.41 7.41 0 0 1 .71.82 5.91 5.91 0 0 1 .57.87 6.42 6.42 0 0 1 .51 1.14 5.6 5.6 0 0 1 .26 1.17 5.44 5.44 0 0 1 0 1.21 6.59 6.59 0 0 1-.23 1.19 6.54 6.54 0 0 1-.94 1.88 6.41 6.41 0 0 1-.67.83 7.45 7.45 0 0 1-.82.76 10.42 10.42 0 0 1-1.16.83 12.92 12.92 0 0 1-1.34.7c-.47.21-1 .41-1.46.58a14.27 14.27 0 0 1-1.55.43c-2.77.54-5.53 1.21-8.27 1.87l-3.25.77 9 14.94a5.84 5.84 0 0 1 .46 1 5.59 5.59 0 0 1 .15 3.21v.1a5.53 5.53 0 0 1-.33.94 6.43 6.43 0 0 1-.51.89 5.62 5.62 0 0 1-.68.81 6 6 0 0 1-.82.67l-2 1.29a83 83 0 0 1-8.62 5.17ZM37.63 19.46a4 4 0 0 1-6.92 4l-8-14a4 4 0 0 1 6.91-4l8.06 14Zm-15 46.77a4 4 0 0 1 4 6.91l-14 8.06a4 4 0 0 1-4-6.91l14-8.06Zm-2.07-26.39a4 4 0 0 1-2.07 7.72L3 43.36a4 4 0 0 1 2-7.72l15.53 4.2ZM82 41.17a4 4 0 0 1-4-6.91l14-8.06a4 4 0 0 1 4 6.91l-14 8.06Zm-18.54-20.6a4 4 0 1 1-7.71-2.06L59.87 3a4 4 0 0 1 7.72 2l-4.13 15.57Zm20.17 96.36 9.67-5.86c-3.38-5.62-8.85-13.55-11.51-19.17a2.17 2.17 0 0 1-.12-.36 2.4 2.4 0 0 1 1.81-2.87c5.38-1.23 10.88-2.39 16.22-3.73a10.28 10.28 0 0 0 1.8-.58 6.11 6.11 0 0 0 1.3-.77 3.38 3.38 0 0 0 .38-.38.9.9 0 0 0 .14-.24l-.06-.18a2.15 2.15 0 0 0-.44-.53 5.75 5.75 0 0 0-.83-.63L47.06 45.75c2.11 21.36 5.2 44.1 6.45 65.31a6.28 6.28 0 0 0 .18 1 2.89 2.89 0 0 0 .26.62l.13.14a1 1 0 0 0 .29 0 2.76 2.76 0 0 0 .51-.17 5.71 5.71 0 0 0 1.28-.79 11.22 11.22 0 0 0 1.35-1.33c1.93-2.27 9.6-12.14 11.4-13.18a2.4 2.4 0 0 1 3.28.82l11.44 18.75Z"/></symbol><symbol viewBox="0 0 48 48" id="keyboard" xmlns="http://www.w3.org/2000/svg"><path d="M3 9h42a2 2 0 0 1 2 2v24a6 6 0 0 1-6 6H7a6 6 0 0 1-6-6V11a2 2 0 0 1 2-2Z" fill="none" stroke="#000" stroke-miterlimit="10" stroke-width="2"/><path fill="none" stroke="#000" stroke-linejoin="round" stroke-width="2" d="M7 14h5v5H7zM16 14h5v5h-5zM25 14h5v5h-5zM34 14h7v5h-7zM7 22h5v5H7zM16 22h5v5h-5zM25 22h5v5h-5zM7 30h5v5H7zM36 30h5v5h-5zM16 30h16v5H16zM33 22h8v5h-8z"/><path fill="none" d="M0 0h48v48H0z"/></symbol><symbol viewBox="0 0 32 32" fill="none" id="mail" xmlns="http://www.w3.org/2000/svg"><g clip-path="url(#na)"><path d="M28.999 8.416 30 9c.562.328 1 .447 1 1v20a1 1 0 0 1-1 1H2a1 1 0 0 1-1-1V10c0-.336.359-.625 1-1l.981-.622M4 12l11 11c.834.834 1.167.833 2 0l11-11M9.5 22.5 4 28m24 0-5.5-5.5M6 14V2a1 1 0 0 1 1-1h18a1 1 0 0 1 1 1v12M11 8h10m-10 4h10" stroke="#000" stroke-width="2" stroke-linecap="round" stroke-linejoin="round"/></g><defs><clipPath id="na"><path fill="#fff" d="M0 0h32v32H0z"/></clipPath></defs></symbol><symbol viewBox="0 0 72.93 122.88" style="enable-background:new 0 0 72.93 122.88" xml:space="preserve" id="mobile" xmlns="http://www.w3.org/2000/svg"><path d="M10.94 0h51.04C68 0 72.93 4.93 72.93 10.94v100.99c0 6.02-4.93 10.94-10.94 10.94H10.95C4.93 122.88 0 117.95 0 111.94V10.95C0 4.93 4.93 0 10.94 0zm25.52 100.1a7.09 7.09 0 0 1 7.09 7.09c0 3.91-3.18 7.09-7.09 7.09-3.92 0-7.09-3.17-7.09-7.09 0-3.91 3.18-7.09 7.09-7.09zM25.17 8.86h22.59c.16 0 .3.14.3.3v3.3c0 .16-.14.3-.3.3H25.17a.3.3 0 0 1-.3-.3v-3.3c0-.17.13-.3.3-.3zM9.65 21.53h53.63c.98 0 1.78.81 1.78 1.78v70.01c0 .97-.81 1.78-1.78 1.78H9.65c-.97 0-1.78-.8-1.78-1.78V23.3c0-.97.8-1.77 1.78-1.77z" style="fill-rule:evenodd;clip-rule:evenodd"/></symbol><symbol viewBox="0 0 24 24" fill="none" id="photoshop" xmlns="http://www.w3.org/2000/svg"><path fill-rule="evenodd" clip-rule="evenodd" d="M23 4a3 3 0 0 0-3-3H4a3 3 0 0 0-3 3v16a3 3 0 0 0 3 3h16a3 3 0 0 0 3-3V4Zm-2 0a1 1 0 0 0-1-1H4a1 1 0 0 0-1 1v16a1 1 0 0 0 1 1h16a1 1 0 0 0 1-1V4Z" fill="#0F0F0F"/><path d="M4.807 17.521 9.122 9.61a1 1 0 0 1 1.756 0l3.168 5.81 1.086-1.9a1 1 0 0 1 1.736 0l2.277 3.985A1 1 0 0 1 18.277 19H5.685a1 1 0 0 1-.878-1.479ZM18 8a2 2 0 1 1-4 0 2 2 0 0 1 4 0Z" fill="#0F0F0F"/></symbol><symbol viewBox="0 0 1024 1024" class="qicon" id="source" xmlns="http://www.w3.org/2000/svg"><path d="M516 673c0 4.4 3.4 8 7.5 8h185c4.1 0 7.5-3.6 7.5-8v-48c0-4.4-3.4-8-7.5-8h-185c-4.1 0-7.5 3.6-7.5 8v48zm-194.9 6.1 192-161c3.8-3.2 3.8-9.1 0-12.3l-192-160.9A7.95 7.95 0 0 0 308 351v62.7c0 2.4 1 4.6 2.9 6.1L420.7 512l-109.8 92.2a8.1 8.1 0 0 0-2.9 6.1V673c0 6.8 7.9 10.5 13.1 6.1zM880 112H144c-17.7 0-32 14.3-32 32v736c0 17.7 14.3 32 32 32h736c17.7 0 32-14.3 32-32V144c0-17.7-14.3-32-32-32zm-40 728H184V184h656v656z"/></symbol><symbol viewBox="-5.5 0 24 24" id="yandex" xmlns="http://www.w3.org/2000/svg"><path d="M5.2 24v-7.786L0 2.25h2.616L6.45 13.017 10.86-.001h2.405L7.607 16.302v7.697z"/></symbol></svg>