<?xml version="1.0" encoding="utf-8"?><svg version="1.1" id="Layer_1" xmlns="http://www.w3.org/2000/svg" xmlns:xlink="http://www.w3.org/1999/xlink" x="0px" y="0px" width="122.88px" height="119.012px" viewBox="0 0 122.88 119.012" enable-background="new 0 0 122.88 119.012" xml:space="preserve"><g><path d="M88.173,13.938H5.764v65.493c0,0.303,0.126,0.58,0.329,0.783s0.48,0.328,0.783,0.328h10.829v5.764H6.876 c-1.894,0-3.614-0.771-4.858-2.018C0.773,83.045,0,81.326,0,79.432V6.876c0-1.894,0.773-3.614,2.018-4.859 C3.262,0.773,4.982,0,6.876,0H87.05c1.894,0,3.612,0.775,4.856,2.019c1.246,1.246,2.02,2.968,2.02,4.857h-0.011l-0.002,18.572 h-5.74V13.938L88.173,13.938z M34.461,119.012c-1.868,0-3.563-0.76-4.79-1.988c-1.228-1.227-1.989-2.922-1.989-4.791V39.878 c0-1.868,0.762-3.563,1.989-4.79c1.227-1.228,2.922-1.989,4.79-1.989h81.64c1.868,0,3.563,0.764,4.789,1.99 c1.229,1.228,1.99,2.925,1.99,4.789v72.354c0,1.865-0.762,3.563-1.99,4.791c-1.227,1.227-2.922,1.988-4.789,1.988H34.461 L34.461,119.012z M117.116,54.809h-83.67v57.423c0,0.277,0.115,0.531,0.3,0.717c0.185,0.184,0.438,0.299,0.715,0.299h81.64 c0.275,0,0.527-0.115,0.714-0.301s0.302-0.439,0.302-0.715V54.809L117.116,54.809z"/></g></svg>